<?xml version="1.0" encoding="utf-8"?>
<!-- Generator: Adobe Illustrator 17.0.0, SVG Export Plug-In . SVG Version: 6.00 Build 0)  -->
<!DOCTYPE svg PUBLIC "-//W3C//DTD SVG 1.1//EN" "http://www.w3.org/Graphics/SVG/1.1/DTD/svg11.dtd">
<svg version="1.1" id="Layer_1" xmlns="http://www.w3.org/2000/svg" xmlns:xlink="http://www.w3.org/1999/xlink" x="0px" y="0px"
	 width="34px" height="34px" viewBox="0 0 34 34" enable-background="new 0 0 34 34" xml:space="preserve">
<g>
	<g>
		<path fill="#444444" d="M17,30.294c-2.876,0-5.596-0.884-7.866-2.557l-0.407-0.3l0.426-0.272c2.01-1.283,3.21-3.452,3.21-5.802
			c0-3.834-3.048-6.837-6.939-6.837c-0.171,0-0.345,0.07-0.529,0.146c-0.041,0.016-0.081,0.033-0.12,0.047l0.001,0.022l-0.079,0.007
			c-0.074,0.026-0.146,0.048-0.215,0.062l-0.048,0.01v0.315H4.365c-0.141,0-0.258,0-0.338-0.233l-0.079,0.016l0.04-0.163
			c-0.052-0.251-0.081-0.669-0.081-1.362c0-1.975,1.188-3.992,2.776-4.736C9.217,5.525,12.973,3.731,17,3.731
			c7.317,0,13.269,5.958,13.269,13.282C30.269,24.336,24.317,30.294,17,30.294z M9.947,27.462C12.013,28.862,14.44,29.6,17,29.6
			c6.934,0,12.575-5.647,12.575-12.587S23.934,4.425,17,4.425c-3.843,0-7.425,1.724-9.828,4.73L7.119,9.222L7.04,9.256
			c-1.391,0.609-2.44,2.387-2.44,4.136c0,0.168,0.007,0.412,0.019,0.642c0.005-0.002,0.01-0.004,0.015-0.006
			c0.215-0.087,0.483-0.197,0.79-0.197c4.209,0,7.633,3.379,7.633,7.531C13.057,23.782,11.904,26.027,9.947,27.462z M15.661,11.424
			c-0.453,0-0.809-0.207-1.099-0.411c-0.353-0.247-0.666-0.461-1.012-0.39l-0.634,0.132l0.242-0.601
			c0.316-0.785,0.928-1.489,1.598-1.838c0.267-0.138,0.56-0.266,0.906-0.266c0.93,0,1.686,0.756,1.686,1.686
			S16.59,11.424,15.661,11.424z M14.031,9.956c0.354,0.086,0.649,0.293,0.917,0.481c0.223,0.157,0.454,0.293,0.713,0.293
			c0.547,0,0.992-0.445,0.992-0.993c0-0.547-0.445-0.992-0.992-0.992c-0.186,0-0.362,0.072-0.586,0.188
			C14.677,9.14,14.302,9.512,14.031,9.956z"/>
	</g>
	<g>
		<path fill="#444444" d="M15.661,11.251c-0.404,0-0.732-0.192-0.999-0.379c-0.382-0.268-0.737-0.506-1.147-0.417l-0.317,0.066
			l0.121-0.301c0.301-0.748,0.883-1.418,1.518-1.748c0.23-0.119,0.502-0.246,0.825-0.246c0.834,0,1.513,0.678,1.513,1.512
			S16.495,11.251,15.661,11.251z M13.758,10.09c0.426,0.023,0.778,0.27,1.09,0.489c0.246,0.173,0.506,0.325,0.812,0.325
			c0.643,0,1.166-0.523,1.166-1.166c0-0.642-0.523-1.165-1.166-1.165c-0.246,0-0.472,0.107-0.666,0.207
			C14.504,9.034,14.047,9.523,13.758,10.09z"/>
	</g>
	<g>
		<path fill="#444444" d="M17,34C7.626,34,0,26.374,0,17S7.626,0,17,0c9.374,0,17,7.626,17,17S26.374,34,17,34z M17,0.694
			C8.009,0.694,0.694,8.009,0.694,17S8.009,33.306,17,33.306S33.306,25.991,33.306,17S25.991,0.694,17,0.694z M17,30.269
			c-2.854,0-5.574-0.893-7.866-2.583l-0.407-0.3l0.426-0.272c2.01-1.283,3.21-3.471,3.21-5.853c0-3.826-3.113-6.939-6.939-6.939
			c-0.113,0-0.276,0.115-0.419,0.216C4.948,14.58,4.89,14.62,4.83,14.658l0.022,0.077l-0.154,0.032l-0.257,1.05l-0.198-0.688
			c-0.087-0.015-0.16-0.064-0.216-0.226l-0.08,0.016l0.04-0.165c-0.052-0.251-0.081-0.669-0.081-1.361
			c0-1.923,1.137-3.773,2.776-4.533C9.268,5.664,13.023,3.833,17,3.833c7.317,0,13.269,5.93,13.269,13.218S24.317,30.269,17,30.269z
			 M9.947,27.412c2.085,1.417,4.514,2.164,7.053,2.164c6.934,0,12.575-5.618,12.575-12.524S23.934,4.527,17,4.527
			c-3.792,0-7.374,1.761-9.828,4.832L7.119,9.425L7.04,9.46c-1.437,0.629-2.44,2.246-2.44,3.933c0,0.151,0.006,0.363,0.015,0.572
			c0.215-0.151,0.481-0.335,0.809-0.335c4.209,0,7.633,3.424,7.633,7.633C13.057,23.711,11.903,25.974,9.947,27.412z"/>
	</g>
</g>
</svg>
